<svg xmlns="http://www.w3.org/2000/svg" width="640" height="480" viewBox="0 0 640 480" role="img" aria-label="Image AOC">
  <defs>
    <linearGradient id="g34104" x1="0" y1="0" x2="0" y2="1">
      <stop offset="0" stop-color="#3cbbe8"/><stop offset="1" stop-color="#146891"/>
    </linearGradient>
  </defs>
  <rect width="640" height="480" fill="url(#g34104)"/>
  <path d="M0 297.6 C 96 287.6, 224 307.6, 320 297.6 S 544 287.6, 640 297.6" fill="none" stroke="#ffffff" stroke-width="3" opacity="0.16"/><path d="M0 311.6 C 96 301.6, 224 321.6, 320 311.6 S 544 301.6, 640 311.6" fill="none" stroke="#ffffff" stroke-width="3" opacity="0.16"/><path d="M0 325.6 C 96 315.6, 224 335.6, 320 325.6 S 544 315.6, 640 325.6" fill="none" stroke="#ffffff" stroke-width="3" opacity="0.16"/>
  
  <g transform="translate(252.8, 172.8)" opacity="0.85" fill="none" stroke="#ffffff" stroke-width="6.720000000000001" stroke-linecap="round" stroke-linejoin="round">
    <rect x="0" y="10.752" width="134.4" height="112.896" rx="10.752"/>
    <circle cx="40.32" cy="51.072" r="12.096"/>
    <path d="M10.752 110.208 L53.760000000000005 67.2 L83.328 94.08 L104.83200000000001 73.92000000000002 L134.4 104.83200000000001"/>
  </g>
  
  
  
</svg>
